<svg width="270" height="60" viewBox="0 0 270 60" fill="none" xmlns="http://www.w3.org/2000/svg">
<rect width="60" height="60" rx="4" fill="#0028FF"/>
<path fill-rule="evenodd" clip-rule="evenodd" d="M42.7273 35.9091C42.7273 35.9091 36.2121 35.9091 23.1818 35.9091V39.5455H42.7273C42.7273 37.1212 42.7273 35.9091 42.7273 35.9091Z" fill="white"/>
<path fill-rule="evenodd" clip-rule="evenodd" d="M36.8182 43.6364C36.8182 43.6364 30.303 43.6364 17.2727 43.6364V47.2727H36.8182C36.8182 44.8485 36.8182 43.6364 36.8182 43.6364Z" fill="white"/>
<path fill-rule="evenodd" clip-rule="evenodd" d="M35 29.8702C35 29.8702 35 24.1559 35 12.7273H31.3636V31.8182C33.7879 30.5195 35 29.8702 35 29.8702Z" fill="white"/>
<path d="M83.4767 38.5611C86.0548 38.5611 87.924 37.5942 89.1164 36.1763L86.925 33.9204C86.0871 35.0161 84.8624 35.5962 83.5089 35.5962C81.3819 35.5962 79.4161 33.8881 79.3516 31.1811H90.4377C90.5344 30.601 90.5666 29.7308 90.5666 29.0218C90.5666 23.7688 87.3762 21.3196 83.4767 21.3196C78.9649 21.3196 76 24.5101 76 29.9242C76 35.3384 78.9004 38.5611 83.4767 38.5611ZM87.215 28.474H79.3516C79.5127 25.4124 81.3819 24.2845 83.4767 24.2845C85.2492 24.2845 87.1506 25.4124 87.215 28.474ZM104.008 30.2142V26.9915H96.1124V30.2142H104.008ZM116.289 38.5611C118.094 38.5611 119.48 37.9487 120.543 36.5952V38.1743H123.895V21.7063H120.543V31.6C120.543 34.436 118.996 35.4028 116.998 35.4028C115.129 35.4028 113.711 34.3071 113.711 31.5356V21.7063H110.359V31.5356C110.359 36.6919 112.841 38.5611 116.289 38.5611ZM132.953 38.1743L135.693 33.9204C136.047 33.3725 136.337 32.8569 136.53 32.4379C136.756 32.8569 137.014 33.3725 137.368 33.9204L140.108 38.1743H143.943L138.432 29.6019L143.492 21.7063H139.657L137.368 25.2835C137.014 25.8314 136.756 26.347 136.53 26.766C136.337 26.347 136.047 25.8636 135.693 25.2835L133.404 21.7063H129.569L134.597 29.6019L129.118 38.1743H132.953ZM150.326 38.5611C151.68 38.5611 152.776 37.4976 152.776 36.2085C152.776 34.9194 151.68 33.8237 150.326 33.8237C148.941 33.8237 147.909 34.9194 147.909 36.2085C147.909 37.4976 148.941 38.5611 150.326 38.5611ZM158.031 44.652L161.383 43.1051V36.7563C162.189 37.7554 163.413 38.5611 165.347 38.5611C169.375 38.5611 172.115 35.3706 172.115 29.9564C172.115 24.5423 169.504 21.3196 165.347 21.3196C163.445 21.3196 162.253 22.0608 161.383 23.0276V21.7063H158.031V44.652ZM164.863 35.4028C163.284 35.4028 162.124 34.5004 161.383 33.5014V26.347C162.124 25.1546 163.317 24.4778 164.863 24.4778C167.345 24.4778 168.763 26.766 168.763 29.9564C168.763 33.4692 167.377 35.4028 164.863 35.4028ZM181.173 38.1743V28.9252C181.173 25.5413 183.042 24.6067 184.525 24.6067C185.717 24.6067 186.523 24.9935 187.135 25.4124L187.618 22.3186C186.877 21.6741 185.943 21.3196 184.847 21.3196C183.203 21.3196 181.946 22.0286 181.173 23.7044V21.7063H177.821V38.1743H181.173ZM199.223 38.5611C203.831 38.5611 206.764 35.3706 206.764 29.9564C206.764 24.5423 203.831 21.3196 199.223 21.3196C194.614 21.3196 191.714 24.5423 191.714 29.9564C191.714 35.3706 194.614 38.5611 199.223 38.5611ZM199.223 35.4028C196.677 35.4028 195.066 33.3403 195.066 29.9564C195.066 26.5726 196.677 24.4778 199.223 24.4778C201.801 24.4778 203.412 26.5726 203.412 29.9564C203.412 33.3403 201.801 35.4028 199.223 35.4028Z" fill="#080033"/>
</svg>
